HIERARCHY
ROOT Hips
{
	OFFSET -0.001795 -0.223333 0.028219
	CHANNELS 6 Xposition Yposition Zposition Zrotation Yrotation Xrotation 
	JOINT LeftUpLeg
	{
		OFFSET 0.069520 -0.091406 -0.006815
		CHANNELS 3 Zrotation Yrotation Xrotation
		JOINT LeftLeg
		{
			OFFSET 0.034277 -0.375199 -0.004496
			CHANNELS 3 Zrotation Yrotation Xrotation
			JOINT LeftFoot
			{
				OFFSET -0.013596 -0.397961 -0.043693
				CHANNELS 3 Zrotation Yrotation Xrotation
				JOINT LeftToe
				{
					OFFSET 0.026358 -0.055791 0.119288
					CHANNELS 3 Zrotation Yrotation Xrotation
					End Site
					{
						OFFSET 0.000000 0.000000 0.000000
					}
				}
			}
		}
	}
	JOINT RightUpLeg
	{
		OFFSET -0.067670 -0.090522 -0.004320
		CHANNELS 3 Zrotation Yrotation Xrotation
		JOINT RightLeg
		{
			OFFSET -0.038290 -0.382569 -0.008850
			CHANNELS 3 Zrotation Yrotation Xrotation
			JOINT RightFoot
			{
				OFFSET 0.015774 -0.398415 -0.042312
				CHANNELS 3 Zrotation Yrotation Xrotation
				JOINT RightToe
				{
					OFFSET -0.025372 -0.048144 0.123348
					CHANNELS 3 Zrotation Yrotation Xrotation
					End Site
					{
						OFFSET 0.000000 0.000000 0.000000
					}
				}
			}
		}
	}
	JOINT Spine
	{
		OFFSET -0.002533 0.108963 -0.026696
		CHANNELS 3 Zrotation Yrotation Xrotation
		JOINT Spine1
		{
			OFFSET 0.005487 0.135180 0.001092
			CHANNELS 3 Zrotation Yrotation Xrotation
			JOINT Spine2
			{
				OFFSET 0.001457 0.052922 0.025425
				CHANNELS 3 Zrotation Yrotation Xrotation
				JOINT Neck
				{
					OFFSET -0.002778 0.213870 -0.042857
					CHANNELS 3 Zrotation Yrotation Xrotation
					JOINT Head
					{
						OFFSET 0.005152 0.064970 0.051349
						CHANNELS 3 Zrotation Yrotation Xrotation
						End Site
						{
							OFFSET 0.000000 0.000000 0.000000
						}
					}
				}
				JOINT LeftShoulder
				{
					OFFSET 0.078845 0.121749 -0.034090
					CHANNELS 3 Zrotation Yrotation Xrotation
					JOINT LeftArm
					{
						OFFSET 0.090977 0.030469 -0.008868
						CHANNELS 3 Zrotation Yrotation Xrotation
						JOINT LeftForeArm
						{
							OFFSET 0.259612 -0.012772 -0.027456
							CHANNELS 3 Zrotation Yrotation Xrotation
							JOINT LeftHand
							{
								OFFSET 0.249234 0.008986 -0.001171
								CHANNELS 3 Zrotation Yrotation Xrotation
								End Site
								{
									OFFSET 0.000000 0.000000 0.000000
								}
							}
						}
					}
				}
				JOINT RightShoulder
				{
					OFFSET -0.081759 0.118833 -0.038615
					CHANNELS 3 Zrotation Yrotation Xrotation
					JOINT RightArm
					{
						OFFSET -0.096012 0.032551 -0.009143
						CHANNELS 3 Zrotation Yrotation Xrotation
						JOINT RightForeArm
						{
							OFFSET -0.253742 -0.013329 -0.021401
							CHANNELS 3 Zrotation Yrotation Xrotation
							JOINT RightHand
							{
								OFFSET -0.255298 0.007772 -0.005559
								CHANNELS 3 Zrotation Yrotation Xrotation
								End Site
								{
									OFFSET 0.000000 0.000000 0.000000
								}
							}
						}
					}
				}
			}
		}
	}
}
MOTION
Frames: 12
Frame Time: 0.050000
0.000000 0.944378 0.000000 -1.781840 -2.801161 1.730525 -0.763186 0.063305 0.549026 1.907187 -0.497308 5.813239 -1.022905 -0.287949 4.254396 0.000000 0.000000 0.000000 -2.176643 1.085623 -12.237481 -1.970162 1.414407 18.723472 1.801288 0.569754 6.779154 0.000000 0.000000 0.000000 1.996383 -0.470715 7.723562 0.056108 -0.010113 -0.808163 0.804179 0.962846 3.384064 3.707343 -2.124572 -7.234466 0.000000 0.000000 0.000000 -21.335319 4.185570 -4.296501 -42.096710 -4.186441 -3.527105 -2.107188 -19.592061 1.121018 0.000000 0.000000 0.000000 20.666871 -2.709479 -3.679174 43.398668 4.657542 -2.436143 -5.040604 18.783437 -0.142966 0.000000 0.000000 0.000000 
-0.000202 0.942947 0.002664 -2.129534 -2.582642 2.113927 -0.291406 0.071216 0.712503 1.831831 -0.453380 5.129437 -1.008611 -0.499843 3.662061 0.000000 0.000000 0.000000 -1.635773 1.276057 -13.875991 -2.716724 1.732839 20.298262 2.577347 1.240067 8.750134 0.000000 0.000000 0.000000 1.712530 -0.494152 8.528552 0.105949 -0.031489 -0.856355 0.963080 1.010504 2.914659 3.485166 -1.872831 -7.892542 0.000000 0.000000 0.000000 -22.035948 4.960494 -4.891451 -43.614270 -5.392679 -3.187954 0.208568 -19.888366 0.740356 0.000000 0.000000 0.000000 21.087346 -3.553832 -4.191551 45.544503 3.882262 -2.791741 -5.061219 19.137887 -0.147135 0.000000 0.000000 0.000000 
-0.001409 0.941443 0.006904 -2.040983 -2.531306 1.751010 -0.570942 0.106608 1.021138 2.273948 -0.557927 5.799799 -0.877197 -0.463404 3.128288 0.000000 0.000000 0.000000 -1.049705 1.521862 -15.858873 -2.849161 1.939376 22.375618 1.780295 0.267679 7.341342 0.000000 0.000000 0.000000 2.248377 -0.570302 9.069457 -0.188870 0.139245 -2.818410 0.606716 0.618820 5.318464 3.237452 -1.737200 -8.156771 0.000000 0.000000 0.000000 -21.866482 4.229122 -4.287326 -44.767600 -6.112277 -3.251112 -1.154736 -20.370506 1.031985 0.000000 0.000000 0.000000 21.865131 -2.852754 -3.928617 47.204283 3.240168 -3.333758 -5.376750 19.279281 -0.185950 0.000000 0.000000 0.000000 
-0.004084 0.939721 0.013766 -2.089614 -2.169493 2.078443 -0.477989 0.125658 1.234336 2.601424 -0.599297 5.564876 -0.890809 -0.717496 2.580514 0.000000 0.000000 0.000000 -1.028283 1.644411 -17.136138 -2.417953 1.726549 21.612098 2.723951 3.420708 5.493671 0.000000 0.000000 0.000000 2.188791 -0.549273 8.722020 -0.670310 0.340363 -1.512053 1.305966 -0.057727 5.021898 2.600986 -1.200876 -9.460987 0.000000 0.000000 0.000000 -22.521153 5.154303 -4.754127 -45.440592 -6.660705 -3.114341 -2.085467 -21.727987 1.309267 0.000000 0.000000 0.000000 22.171874 -3.080997 -4.298458 47.668182 2.566391 -3.539533 -4.365221 19.187820 -0.062801 0.000000 0.000000 0.000000 
-0.008447 0.937807 0.023302 -1.726865 -1.219535 1.902611 -0.581338 0.209017 2.063636 2.906748 -0.638687 5.366744 -1.210167 -1.535139 2.153190 0.000000 0.000000 0.000000 -0.795652 1.715884 -17.793362 -2.427974 1.666028 21.426638 3.321224 5.065735 5.158529 0.000000 0.000000 0.000000 2.367156 -0.596688 9.183796 -0.661485 0.342570 -1.639268 1.070509 -0.164406 5.346798 2.939277 -1.323256 -10.298547 0.000000 0.000000 0.000000 -22.840970 4.525536 -4.549995 -46.266157 -6.695004 -3.148506 -2.430979 -23.267888 1.462313 0.000000 0.000000 0.000000 22.040471 -3.864764 -4.585366 49.232090 2.169246 -3.888010 -3.943195 18.862208 0.023362 0.000000 0.000000 0.000000 
-0.014382 0.935924 0.035400 -1.442506 0.647521 1.807311 -0.252472 0.263578 2.797601 3.164017 -0.674473 5.272920 -1.916334 -3.127622 1.775337 0.000000 0.000000 0.000000 -0.863922 1.642311 -17.576609 -1.939923 1.436187 21.736237 3.703407 5.707257 5.749053 0.000000 0.000000 0.000000 1.992500 -0.602109 9.692697 -0.016279 0.056551 -1.670446 1.171498 -0.917457 5.517339 2.374080 -0.780977 -11.896899 0.000000 0.000000 0.000000 -23.012161 5.362638 -5.112015 -47.984864 -7.045124 -3.117516 -4.233458 -25.344788 2.001866 0.000000 0.000000 0.000000 20.974857 -4.333388 -4.611693 51.556925 1.972430 -4.205681 -2.724161 18.181812 0.204987 0.000000 0.000000 0.000000 
-0.021431 0.934916 0.049572 -1.109820 1.740044 1.811364 0.052872 0.327303 3.699671 3.296908 -0.679217 5.032604 -2.444584 -4.061340 2.000232 0.000000 0.000000 0.000000 -0.509593 1.621366 -17.131862 -2.037471 1.432847 22.281598 2.920447 4.030723 5.704240 0.000000 0.000000 0.000000 2.046499 -0.611391 9.645852 0.427087 -0.130491 -1.967662 0.823118 -0.855150 6.039677 2.577914 -0.832244 -12.209227 0.000000 0.000000 0.000000 -23.143723 5.323253 -5.293596 -49.261587 -6.102077 -3.564527 -5.528699 -27.192553 2.436329 0.000000 0.000000 0.000000 21.142835 -4.586160 -4.574356 52.761190 1.292682 -4.690107 -2.149741 18.409319 0.320131 0.000000 0.000000 0.000000 
-0.029411 0.934764 0.065225 -0.632178 3.004657 1.815274 0.346664 0.328208 3.960590 3.380668 -0.757233 5.981273 -3.148971 -5.026398 2.731651 0.000000 0.000000 0.000000 -0.509088 1.521759 -16.326648 -1.823538 1.321471 23.001609 2.237758 3.066346 4.747407 0.000000 0.000000 0.000000 2.358527 -0.667093 9.900159 0.461275 -0.106353 -2.748802 0.783634 -1.023817 7.012988 2.262146 -0.561520 -12.550867 0.000000 0.000000 0.000000 -22.535355 5.016964 -5.124991 -51.132626 -5.133022 -4.159432 -7.002758 -29.161968 2.994152 0.000000 0.000000 0.000000 21.518479 -5.039362 -4.717608 53.143259 1.442062 -4.790984 -1.380517 18.308592 0.454807 0.000000 0.000000 0.000000 
-0.037946 0.934836 0.082019 -0.338649 3.575114 1.641545 0.612300 0.326278 4.157668 3.626283 -0.955437 8.113739 -3.324108 -5.371956 2.711676 0.000000 0.000000 0.000000 -0.072315 1.453360 -15.104579 -1.814531 1.302736 23.509083 1.672672 2.434925 3.459371 0.000000 0.000000 0.000000 2.938734 -0.734626 9.992174 0.461247 -0.105315 -2.660073 0.759768 -0.738541 7.374292 2.050897 -0.329238 -13.001056 0.000000 0.000000 0.000000 -22.193144 5.088507 -5.255763 -52.284823 -4.478023 -4.538121 -8.766503 -30.149195 3.540176 0.000000 0.000000 0.000000 21.343295 -4.808671 -4.385595 53.859952 1.363081 -4.961925 -0.767480 18.584379 0.573727 0.000000 0.000000 0.000000 
-0.046580 0.934899 0.099585 -0.366623 4.910100 1.434248 0.900332 0.215856 3.038955 4.365519 -1.491538 12.652082 -3.117157 -5.127443 2.337988 0.000000 0.000000 0.000000 0.576948 1.345045 -13.375759 -1.187456 0.994531 23.216489 0.618361 0.407102 2.540677 0.000000 0.000000 0.000000 3.606913 -0.842604 10.362754 0.805744 -0.212675 -3.393217 0.907641 -0.461819 8.359283 2.241222 -0.351765 -13.184492 0.000000 0.000000 0.000000 -22.354302 4.793439 -5.363222 -53.304607 -2.934975 -5.344376 -9.514626 -31.675708 3.880542 0.000000 0.000000 0.000000 20.786351 -4.506417 -3.833912 53.963463 2.113707 -4.799270 0.390201 18.609874 0.781620 0.000000 0.000000 0.000000 
-0.054512 0.935229 0.117088 -0.340519 6.159235 1.142429 1.444271 -0.074268 -0.510998 3.888099 -2.264490 21.395034 -2.835958 -3.781013 3.521606 0.000000 0.000000 0.000000 1.497258 1.185005 -10.987284 -0.970214 0.816688 22.199597 -0.569396 -1.851580 1.019386 0.000000 0.000000 0.000000 4.162616 -0.985615 11.199845 1.069575 -0.336995 -3.036427 1.159040 0.502275 7.945871 2.807919 -0.595645 -12.932263 0.000000 0.000000 0.000000 -22.871421 3.756934 -5.332077 -53.282402 -1.593309 -5.789273 -10.556384 -31.692692 4.020265 0.000000 0.000000 0.000000 21.163463 -3.292854 -2.771064 53.131692 3.271737 -4.299726 -0.076190 18.222913 0.737727 0.000000 0.000000 0.000000 
-0.060618 0.934025 0.133968 -0.054013 6.878693 1.561153 1.068065 -0.428093 -4.977834 3.703891 -3.284944 30.360651 -2.670999 -2.550479 5.051297 0.000000 0.000000 0.000000 1.485460 1.055658 -9.775308 0.599789 0.264648 22.131691 -2.001834 -4.748886 -1.279475 0.000000 0.000000 0.000000 4.346416 -1.071693 11.743782 1.808252 -0.714132 -2.245308 1.137668 1.619651 7.356832 2.946608 -0.560997 -12.769264 0.000000 0.000000 0.000000 -23.076635 4.241466 -6.090381 -53.916189 -0.060313 -6.392731 -11.035492 -31.645573 3.997038 0.000000 0.000000 0.000000 21.233600 -1.485382 -1.347020 52.077953 5.949709 -3.157268 -0.020675 18.790651 0.802728 0.000000 0.000000 0.000000 
